<?xml version="1.0" standalone="no"?>
<!DOCTYPE svg PUBLIC "-//W3C//DTD SVG 20010904//EN"
 "http://www.w3.org/TR/2001/REC-SVG-20010904/DTD/svg10.dtd">
<svg version="1.0" xmlns="http://www.w3.org/2000/svg"
 width="1280.000000pt" height="1215.000000pt" viewBox="0 0 1280.000000 1215.000000"
 preserveAspectRatio="xMidYMid meet">
<metadata>
Created by potrace 1.15, written by Peter Selinger 2001-2017
</metadata>
<g transform="translate(0.000000,1215.000000) scale(0.100000,-0.100000)"
fill="#000000" stroke="none">
<path d="M9685 12139 c-595 -57 -1111 -295 -1485 -686 -471 -491 -739 -1001
-841 -1597 -30 -174 -37 -522 -15 -707 15 -124 15 -146 1 -265 -19 -155 -52
-234 -141 -332 -266 -294 -795 -355 -1604 -186 -96 20 -211 47 -255 60 -179
55 -259 66 -415 61 -186 -6 -322 -34 -670 -138 -466 -140 -580 -163 -815 -164
-118 0 -182 5 -245 18 -154 33 -301 92 -425 172 -109 69 -254 344 -311 590
-26 110 -26 343 0 434 40 146 124 264 223 313 40 19 64 23 143 23 86 0 101 -3
162 -32 94 -44 151 -85 243 -173 64 -62 89 -79 127 -89 188 -45 392 40 598
248 112 115 195 228 262 357 47 93 60 144 36 144 -20 0 -119 -110 -194 -215
-57 -80 -88 -113 -152 -160 -267 -197 -427 -232 -563 -124 -22 17 -84 86 -138
153 -132 161 -195 207 -311 221 -107 13 -260 -35 -430 -136 l-89 -53 -44 -95
c-225 -486 -235 -1100 -24 -1505 138 -266 366 -447 652 -517 104 -26 311 -35
435 -20 135 17 250 42 533 117 137 36 299 76 360 90 128 27 369 51 411 40 l28
-7 -44 -31 c-75 -54 -262 -249 -342 -357 -221 -298 -388 -654 -632 -1346 -107
-304 -81 -269 -221 -290 -429 -63 -762 -159 -1052 -304 -207 -102 -252 -133
-317 -213 -278 -347 -723 -639 -1144 -751 -108 -29 -126 -31 -305 -31 -172 -1
-197 1 -265 22 -132 42 -206 87 -307 188 l-92 92 31 -61 c123 -248 335 -403
595 -438 97 -13 171 -8 348 22 302 51 545 165 1035 483 262 170 632 356 708
356 16 0 46 11 65 25 71 48 409 137 609 160 69 9 63 22 78 -187 60 -859 -109
-1700 -441 -2198 -73 -110 -210 -251 -289 -297 -100 -59 -226 -76 -295 -41
-14 7 -17 7 -10 0 22 -23 136 -72 201 -88 78 -18 167 -14 225 10 43 18 86 64
186 200 358 484 592 1180 643 1911 14 208 48 445 90 643 l12 52 42 0 c57 0
264 58 406 113 168 65 260 107 636 290 343 167 521 244 672 291 46 14 85 26
87 26 2 0 -4 -20 -15 -44 -50 -117 -86 -321 -77 -433 3 -38 27 -128 62 -233
l58 -170 -74 -77 c-121 -127 -176 -223 -223 -385 -65 -226 -57 -509 25 -908
24 -116 42 -171 89 -275 200 -449 303 -932 259 -1218 -6 -40 -51 -181 -100
-318 -150 -422 -196 -623 -206 -904 -5 -141 -2 -181 22 -340 43 -285 43 -285
44 -175 7 547 127 1051 335 1404 56 94 67 131 101 331 25 148 36 357 25 507
-18 245 -68 453 -190 793 -141 391 -161 513 -113 685 8 30 26 75 39 101 13 26
28 69 34 96 15 63 64 163 105 210 l33 38 11 -40 c6 -22 11 -60 11 -86 0 -63
60 -304 122 -489 87 -259 209 -487 422 -784 67 -95 71 -103 77 -170 9 -97 58
-219 126 -313 76 -106 96 -164 91 -273 -2 -68 -9 -96 -30 -140 -65 -132 -205
-214 -442 -261 -67 -13 -61 -23 19 -33 155 -19 336 73 460 234 37 48 115 186
115 204 0 2 4 16 10 30 l9 26 73 -40 c126 -67 363 -154 496 -182 l64 -13 -119
-92 c-225 -175 -365 -310 -463 -448 -50 -71 -214 -404 -275 -560 -81 -206
-113 -374 -94 -499 6 -39 14 -75 18 -79 5 -4 11 21 15 57 26 256 164 522 403
776 163 174 476 437 688 578 l120 81 21 -20 c32 -30 72 -110 85 -168 9 -45 8
-67 -11 -149 -63 -279 -204 -517 -542 -915 -65 -76 -118 -142 -118 -148 0 -20
76 -8 126 20 65 38 257 219 343 324 297 363 425 607 438 832 8 141 -21 245
-99 346 l-36 46 92 95 c297 304 486 650 546 1002 24 144 27 378 5 511 -33 205
-59 271 -233 585 -150 272 -232 466 -263 620 l-12 63 49 46 c27 26 91 91 143
144 83 86 96 96 105 80 18 -32 119 -134 211 -211 119 -100 299 -217 460 -299
139 -71 141 -72 179 -148 56 -109 72 -521 31 -765 -42 -253 -132 -500 -260
-720 -65 -112 -133 -358 -176 -640 -19 -123 -23 -187 -23 -420 -1 -282 4 -351
50 -685 75 -539 84 -632 95 -920 13 -327 10 -357 -46 -474 -110 -230 -401
-358 -821 -363 -133 -1 -133 -3 1 -32 186 -40 372 -45 493 -12 238 65 411 243
495 511 76 243 92 501 51 858 -37 332 4 999 87 1427 60 310 130 529 294 925
64 153 129 324 146 379 32 110 59 255 59 326 0 25 4 51 8 57 6 9 58 -33 173
-136 263 -237 429 -420 514 -565 13 -23 36 -81 50 -131 85 -294 71 -632 -42
-1005 -58 -193 -83 -255 -291 -732 -33 -76 -92 -193 -131 -262 -117 -204 -158
-306 -195 -481 -39 -184 -66 -508 -67 -805 -1 -171 7 -317 17 -308 1 2 10 61
19 132 9 70 26 162 36 204 11 43 31 138 45 212 83 455 184 703 550 1366 74
133 172 320 219 415 83 170 86 180 154 449 78 310 91 386 91 538 -1 199 -43
354 -155 577 -116 229 -184 324 -326 451 -148 132 -484 477 -470 482 5 2 65
-6 133 -17 197 -33 309 -42 548 -46 206 -4 232 -6 315 -30 116 -34 195 -72
276 -134 258 -195 332 -498 184 -746 -20 -33 -66 -91 -103 -129 l-67 -69 78
53 c312 212 391 535 212 856 -109 194 -291 359 -521 471 -161 78 -269 103
-484 113 -253 12 -496 52 -768 126 -93 25 -132 41 -144 57 -26 33 -132 242
-163 322 -40 101 -83 253 -101 363 -23 134 -15 360 16 457 46 145 126 264 229
339 l49 36 108 -54 c368 -183 607 -242 884 -217 417 38 823 252 1206 635 511
512 871 1244 935 1898 7 72 9 231 6 410 -4 313 -21 463 -72 668 -129 518 -445
935 -976 1290 -68 45 -128 88 -134 95 -17 21 -199 124 -338 190 -489 234
-1080 343 -1592 294z m-4277 -4463 c120 -75 287 -141 448 -175 93 -21 101 -24
134 -63 65 -78 223 -158 311 -158 16 0 29 -3 29 -7 0 -24 -66 -117 -112 -158
-234 -210 -456 -338 -1076 -619 -177 -80 -420 -195 -540 -255 -206 -103 -243
-118 -387 -156 -73 -19 -242 -55 -261 -55 -29 0 141 437 266 685 136 269 261
452 423 621 151 158 272 244 426 306 152 61 277 74 339 34z m1539 -1201 c45
-27 82 -54 83 -58 0 -13 -58 -95 -126 -177 -69 -83 -236 -248 -331 -327 -81
-67 -507 -322 -519 -310 -3 2 -7 58 -11 123 -8 170 16 312 85 492 27 71 40 93
56 97 225 46 420 105 581 174 50 21 92 38 95 37 3 0 42 -23 87 -51z m651 -330
c43 -18 74 -45 112 -97 l27 -37 -5 -193 -5 -193 -52 -65 c-29 -37 -165 -183
-302 -327 -408 -427 -532 -587 -663 -859 -52 -107 -125 -313 -136 -383 -4 -23
-10 -44 -14 -46 -8 -5 -131 182 -188 285 -50 89 -85 207 -73 241 5 16 15 73
22 128 19 156 -11 321 -99 537 -20 49 -20 53 -4 67 9 8 107 72 217 142 375
240 401 259 645 500 124 121 249 236 278 254 97 61 169 75 240 46z m227 -1182
c70 -273 181 -515 323 -708 59 -80 156 -280 184 -380 33 -117 32 -310 0 -415
-27 -87 -82 -194 -143 -277 -58 -80 -243 -262 -368 -362 -87 -70 -108 -82
-130 -76 -47 11 -424 202 -556 282 -188 114 -215 134 -219 157 -19 102 -51
206 -86 286 -23 52 -42 105 -41 118 2 39 51 171 102 275 96 195 233 405 428
656 130 169 456 549 472 550 3 1 19 -47 34 -106z"/>
</g>
</svg>
