<?xml version="1.0" encoding="utf-8"?>
<!-- Generator: Adobe Illustrator 23.0.1, SVG Export Plug-In . SVG Version: 6.00 Build 0)  -->
<svg version="1.1" id="Layer_1" xmlns="http://www.w3.org/2000/svg" xmlns:xlink="http://www.w3.org/1999/xlink" x="0px" y="0px"
	 viewBox="0 0 500 500" style="enable-background:new 0 0 500 500;" xml:space="preserve">
<style type="text/css">
	.st0{fill:#F7DF1E;}
</style>
<path class="st0" d="M40,432.8V67.2C40,52.2,52.2,40,67.2,40h365.5c15,0,27.2,12.2,27.2,27.2v365.5c0,15-12.2,27.2-27.2,27.2H67.2
	C52.2,460,40,447.8,40,432.8z"/>
<path d="M66.7,40C52.1,40,40,52.1,40,66.7v366.6c0,14.6,12.1,26.7,26.7,26.7h366.6c14.6,0,26.7-12,26.7-26.7V66.7
	c0-14.6-12-26.7-26.7-26.7H66.7z M66.7,60h366.6c3.7,0,6.7,3,6.7,6.7v366.6c0,3.7-3,6.7-6.7,6.7H66.7c-3.7,0-6.7-3-6.7-6.7V66.7
	C60,63,63,60,66.7,60z M230,230v125.7c0,19.3-7.3,24.3-20,24.3c-13.3,0-22.5-8.3-28.6-19L150,380c9.1,19.3,31.4,40,62.3,40
	c34.2,0,57.7-18.2,57.7-58.2V230H230z M354.5,230c-34.1,0-55.9,21.8-55.9,50.4c0,31.1,18.3,45.7,45.9,57.5l9.5,4.1
	c17.4,7.6,26,12.3,26,25.4c0,10.9-8.3,18.8-24.1,18.8c-18.8,0-27.7-12.8-35.9-26.1l-30,20c11.2,22.1,31.3,40,66.8,40
	c36.3,0,63.2-18.8,63.2-53.2c0-31.9-18.3-46.1-50.7-60l-9.5-4.1c-16.4-7.1-23.5-11.7-23.5-23.2c0-9.3,7.1-16.4,18.3-16.4
	c11,0,18,4.6,24.5,16.4l29.7-19.1C396.3,238.4,378.8,230,354.5,230z"/>
</svg>
