<?xml version="1.0" encoding="UTF-8" standalone="no"?>
<svg
   xmlns:dc="http://purl.org/dc/elements/1.1/"
   xmlns:cc="http://creativecommons.org/ns#"
   xmlns:rdf="http://www.w3.org/1999/02/22-rdf-syntax-ns#"
   xmlns:svg="http://www.w3.org/2000/svg"
   xmlns="http://www.w3.org/2000/svg"
   xmlns:sodipodi="http://sodipodi.sourceforge.net/DTD/sodipodi-0.dtd"
   xmlns:inkscape="http://www.inkscape.org/namespaces/inkscape"
   height="626.38733pt"
   viewBox="0 0 376.40769 626.38733"
   width="376.40744pt"
   version="1.1"
   id="svg18"
   sodipodi:docname="rocket.svg"
   inkscape:version="0.92.5 (2060ec1f9f, 2020-04-08)">
  <metadata
     id="metadata24">
    <rdf:RDF>
      <cc:Work
         rdf:about="">
        <dc:format>image/svg+xml</dc:format>
        <dc:type
           rdf:resource="http://purl.org/dc/dcmitype/StillImage" />
      </cc:Work>
    </rdf:RDF>
  </metadata>
  <defs
     id="defs22" />
  <sodipodi:namedview
     pagecolor="#ffffff"
     bordercolor="#666666"
     borderopacity="1"
     objecttolerance="10"
     gridtolerance="10"
     guidetolerance="10"
     inkscape:pageopacity="0"
     inkscape:pageshadow="2"
     inkscape:window-width="1600"
     inkscape:window-height="847"
     id="namedview20"
     showgrid="false"
     inkscape:zoom="0.34570313"
     inkscape:cx="250.28692"
     inkscape:cy="362.24606"
     inkscape:window-x="-8"
     inkscape:window-y="-8"
     inkscape:window-maximized="1"
     inkscape:current-layer="svg18" />
  <path
     d="m 110.51306,533.83939 c 2.03845,6.13747 7.77817,10.28067 14.23881,10.28343 h 5.18729 c -1.3866,-16.37394 -2.28981,-34.74491 -2.28705,-55.92773 0,-1.49707 0.40879,-2.62955 0.46956,-4.07138 l -33.374889,-0.003 c 7.844469,27.24571 14.175279,44.89024 15.766279,49.71845 z m 0,0"
     id="path2"
     style="fill:#384a6c;fill-opacity:1"
     inkscape:connector-curvature="0" />
  <path
     d="m 247.65034,488.1951 c 0,21.2353 -0.86179,39.59797 -2.19314,55.92772 h 7.02688 c 6.51864,0 12.2915,-4.20397 14.283,-10.41601 2.6627,-8.32508 7.2368,-21.03091 15.363,-49.58587 h -34.94654 c 0.0635,1.4446 0.46956,2.57432 0.4668,4.07416 z m 0,0"
     id="path4"
     style="fill:#384a6c;fill-opacity:1"
     inkscape:connector-curvature="0" />
  <path
     d="m 187.66503,439.51797 c -15.32985,0 -30.01336,28.42791 -30.01613,48.67712 0,67.74967 8.7173,107.06591 16.02868,128.11615 2.0937,6.03251 7.77817,10.07627 14.16423,10.07627 6.39987,0.003 12.08434,-4.05757 14.18081,-10.09284 7.13183,-20.59449 15.62816,-59.54613 15.63092,-128.09958 -0.006,-22.27386 -15.41824,-48.67435 -29.97193,-48.67712 z m 0,0"
     id="path6"
     style="fill:#384a6c;fill-opacity:1"
     inkscape:connector-curvature="0" />
  <path
     d="m 0,462.81383 v 59.99911 c 0,6.78381 4.554762,12.73069 11.117598,14.48741 6.449586,1.75948 13.451601,-1.06066 16.873887,-6.98545 C 39.857621,509.75357 52.287231,493.65031 64.357761,486.50743 53.726301,448.54187 46.044801,411.48782 41.280121,375.61596 26.516504,378.8449 0,411.78613 0,462.81383 Z m 0,0"
     id="path8"
     style="fill:#384a6c;fill-opacity:1"
     inkscape:connector-curvature="0" />
  <path
     d="m 366.1073,536.07396 c 6.15127,-2.01912 10.3,-7.76437 10.29724,-14.23605 l 0.003,-60.00188 c -0.006,-46.45912 -25.89226,-80.52178 -40.66692,-84.75614 -5.58228,39.73885 -14.11728,77.11607 -23.46159,110.60697 9.82216,6.86667 16.93466,15.94581 37.08444,43.0838 3.89461,5.2591 10.6867,7.32242 16.74407,5.3033 z m 0,0"
     id="path10"
     style="fill:#384a6c;fill-opacity:1"
     inkscape:connector-curvature="0" />
  <path
     d="m 142.65051,250.52435 c 0.003,24.81227 20.18568,44.9952 44.99795,44.99796 24.81503,0 45.00072,-20.18569 45.00072,-45.00072 0,-24.81503 -20.18293,-44.99796 -44.99796,-44.99796 -24.81503,0 -45.00071,20.18569 -45.00071,45.00072 z m 0,0"
     id="path12"
     style="fill:#384a6c;fill-opacity:1"
     inkscape:connector-curvature="0" />
  <path
     d="m 197.43747,3.636357 c -5.62647,-4.86412 -13.94879,-4.833737 -19.56973,0.0028 -28.01082,24.088588 -50.75425,53.240169 -68.40982,86.452091 19.38743,15.559072 47.33472,25.430952 78.1933,25.430952 31.22595,-0.003 59.68423,-10.39116 79.16006,-26.486125 C 249.65565,58.180255 227.19396,29.222023 197.43747,3.636357 Z m 0,0"
     id="path14"
     style="fill:#384a6c;fill-opacity:1"
     inkscape:connector-curvature="0" />
  <path
     d="m 187.65399,145.52175 c -35.3001,0 -67.24696,-10.39115 -91.316219,-27.54402 -37.57057,89.81362 -41.49833,207.82864 -9.54318,336.14366 h 47.873339 c 9.71444,-22.99478 27.81471,-44.60297 52.9971,-44.60574 25.22107,0.003 43.27991,21.63581 52.97501,44.60574 h 49.44775 c 24.49739,-98.81541 37.7363,-229.14127 -9.6288,-337.55511 -24.30403,17.9235 -56.93038,28.95547 -92.805,28.95547 z m 74.99475,105.0026 c 0,41.34918 -33.64558,74.99475 -74.99752,74.99751 -41.3547,10e-6 -75.00303,-33.64833 -75.00027,-75.00027 0.003,-41.35194 33.64834,-74.99752 74.99751,-74.99752 41.3547,0 75.00028,33.64558 75.00028,75.00028 z m 0,0"
     id="path16"
     style="fill:#384a6c;fill-opacity:1"
     inkscape:connector-curvature="0" />
</svg>
