<?xml version="1.0" encoding="utf-8"?>
<!-- Generator: Adobe Illustrator 23.0.1, SVG Export Plug-In . SVG Version: 6.00 Build 0)  -->
<svg version="1.1" id="Layer_1" xmlns="http://www.w3.org/2000/svg" xmlns:xlink="http://www.w3.org/1999/xlink" x="0px" y="0px"
	 viewBox="0 0 2500 1885" style="enable-background:new 0 0 2500 1885;" xml:space="preserve">
<style type="text/css">
	.st0{display:none;fill:#C13D62;}
	.st1{fill:none;stroke:#231F20;stroke-width:100;stroke-miterlimit:10;}
</style>
<rect class="st0" width="2500" height="1885"/>
<path class="st1" d="M1879.3,1412.7h310.4V667.5L1840,317.8l-219.5,219.5l258.8,258.8V1412.7L1879.3,1412.7z M2190.5,1568.2H1107.9
	l-258.8-258.8l109.7-109.7l213.7,213.7h439.7l-433.2-434l110.5-110.5l433.2,433.2V862.4L1510,649.5l108.9-108.9l-538-540.4H0
	l309.5,309.5v0.8h642l226.8,226.8L846.7,868.9L619.9,642.1V466.1H309.5v304.6l537.2,537.2l-218.6,218.6l349.7,349.7H2500
	L2190.5,1568.2L2190.5,1568.2z"/>
</svg>
